<mxfile host="app.diagrams.net" modified="2022-05-27T09:51:10.906Z" agent="5.0 (Macintosh; Intel Mac OS X 10_15_7) AppleWebKit/537.36 (KHTML, like Gecko) Chrome/101.0.4951.64 Safari/537.36" etag="_zMgve1cvESjwIdHY85D" version="17.4.0" type="github">
  <diagram id="C5RBs43oDa-KdzZeNtuy" name="Page-1">
    <mxGraphModel dx="940" dy="614" grid="1" gridSize="10" guides="1" tooltips="1" connect="1" arrows="1" fold="1" page="1" pageScale="1" pageWidth="827" pageHeight="1169" math="0" shadow="0">
      <root>
        <mxCell id="WIyWlLk6GJQsqaUBKTNV-0" />
        <mxCell id="WIyWlLk6GJQsqaUBKTNV-1" parent="WIyWlLk6GJQsqaUBKTNV-0" />
        <mxCell id="IDjnJ62qDtEvt0z7PZGD-0" value="V2TXLivePusherJSAdapter" style="swimlane;fontStyle=1;align=center;verticalAlign=top;childLayout=stackLayout;horizontal=1;startSize=26;horizontalStack=0;resizeParent=1;resizeParentMax=0;resizeLast=0;collapsible=1;marginBottom=0;" parent="WIyWlLk6GJQsqaUBKTNV-1" vertex="1">
          <mxGeometry x="280" y="140" width="240" height="94" as="geometry" />
        </mxCell>
        <mxCell id="IDjnJ62qDtEvt0z7PZGD-1" value="+V2TXLivePusher                   mPusher" style="text;strokeColor=none;fillColor=none;align=left;verticalAlign=top;spacingLeft=4;spacingRight=4;overflow=hidden;rotatable=0;points=[[0,0.5],[1,0.5]];portConstraint=eastwest;" parent="IDjnJ62qDtEvt0z7PZGD-0" vertex="1">
          <mxGeometry y="26" width="240" height="34" as="geometry" />
        </mxCell>
        <mxCell id="IDjnJ62qDtEvt0z7PZGD-2" value="" style="line;strokeWidth=1;fillColor=none;align=left;verticalAlign=middle;spacingTop=-1;spacingLeft=3;spacingRight=3;rotatable=0;labelPosition=right;points=[];portConstraint=eastwest;" parent="IDjnJ62qDtEvt0z7PZGD-0" vertex="1">
          <mxGeometry y="60" width="240" height="8" as="geometry" />
        </mxCell>
        <mxCell id="IDjnJ62qDtEvt0z7PZGD-3" value="+ createPusherInstance(int mode)" style="text;strokeColor=none;fillColor=none;align=left;verticalAlign=top;spacingLeft=4;spacingRight=4;overflow=hidden;rotatable=0;points=[[0,0.5],[1,0.5]];portConstraint=eastwest;" parent="IDjnJ62qDtEvt0z7PZGD-0" vertex="1">
          <mxGeometry y="68" width="240" height="26" as="geometry" />
        </mxCell>
        <mxCell id="IDjnJ62qDtEvt0z7PZGD-4" value="V2TXLivePusherImpl" style="swimlane;fontStyle=1;align=center;verticalAlign=top;childLayout=stackLayout;horizontal=1;startSize=26;horizontalStack=0;resizeParent=1;resizeParentMax=0;resizeLast=0;collapsible=1;marginBottom=0;" parent="WIyWlLk6GJQsqaUBKTNV-1" vertex="1">
          <mxGeometry x="300" y="320" width="190" height="86" as="geometry" />
        </mxCell>
        <mxCell id="IDjnJ62qDtEvt0z7PZGD-5" value="+V2TXLivePusherJni mImpl" style="text;strokeColor=none;fillColor=none;align=left;verticalAlign=top;spacingLeft=4;spacingRight=4;overflow=hidden;rotatable=0;points=[[0,0.5],[1,0.5]];portConstraint=eastwest;" parent="IDjnJ62qDtEvt0z7PZGD-4" vertex="1">
          <mxGeometry y="26" width="190" height="26" as="geometry" />
        </mxCell>
        <mxCell id="IDjnJ62qDtEvt0z7PZGD-6" value="" style="line;strokeWidth=1;fillColor=none;align=left;verticalAlign=middle;spacingTop=-1;spacingLeft=3;spacingRight=3;rotatable=0;labelPosition=right;points=[];portConstraint=eastwest;" parent="IDjnJ62qDtEvt0z7PZGD-4" vertex="1">
          <mxGeometry y="52" width="190" height="8" as="geometry" />
        </mxCell>
        <mxCell id="IDjnJ62qDtEvt0z7PZGD-7" value="+ method(type): type" style="text;strokeColor=none;fillColor=none;align=left;verticalAlign=top;spacingLeft=4;spacingRight=4;overflow=hidden;rotatable=0;points=[[0,0.5],[1,0.5]];portConstraint=eastwest;" parent="IDjnJ62qDtEvt0z7PZGD-4" vertex="1">
          <mxGeometry y="60" width="190" height="26" as="geometry" />
        </mxCell>
        <mxCell id="IDjnJ62qDtEvt0z7PZGD-14" value="" style="endArrow=open;endFill=1;endSize=12;html=1;rounded=0;exitX=0.483;exitY=1.015;exitDx=0;exitDy=0;exitPerimeter=0;entryX=0.5;entryY=0;entryDx=0;entryDy=0;" parent="WIyWlLk6GJQsqaUBKTNV-1" edge="1">
          <mxGeometry width="160" relative="1" as="geometry">
            <mxPoint x="400.4200000000001" y="234" as="sourcePoint" />
            <mxPoint x="399.5" y="319.61" as="targetPoint" />
          </mxGeometry>
        </mxCell>
        <mxCell id="IDjnJ62qDtEvt0z7PZGD-15" value="&lt;div style=&quot;text-align: left&quot;&gt;mode = 0,RTMP-ROOM&amp;nbsp;&lt;/div&gt;&lt;div style=&quot;text-align: left&quot;&gt;mode = 1,&amp;nbsp; TRTC&lt;/div&gt;mode = 102, TRTC-ROOM&amp;nbsp;" style="edgeLabel;html=1;align=center;verticalAlign=middle;resizable=0;points=[];" parent="IDjnJ62qDtEvt0z7PZGD-14" vertex="1" connectable="0">
          <mxGeometry x="0.2289" y="1" relative="1" as="geometry">
            <mxPoint x="4" y="-13" as="offset" />
          </mxGeometry>
        </mxCell>
        <mxCell id="IDjnJ62qDtEvt0z7PZGD-16" value="" style="endArrow=open;endFill=1;endSize=12;html=1;rounded=0;entryX=0.5;entryY=0;entryDx=0;entryDy=0;" parent="WIyWlLk6GJQsqaUBKTNV-1" target="IDjnJ62qDtEvt0z7PZGD-18" edge="1">
          <mxGeometry width="160" relative="1" as="geometry">
            <mxPoint x="400" y="410" as="sourcePoint" />
            <mxPoint x="399.5" y="505.61" as="targetPoint" />
          </mxGeometry>
        </mxCell>
        <mxCell id="IDjnJ62qDtEvt0z7PZGD-17" value="&lt;div style=&quot;text-align: left&quot;&gt;mode = 0,RTMP-ROOM&amp;nbsp;&lt;/div&gt;&lt;div style=&quot;text-align: left&quot;&gt;mode = 1,&amp;nbsp; TRTC&lt;/div&gt;mode = 102, TRTC-ROOM&amp;nbsp;" style="edgeLabel;html=1;align=center;verticalAlign=middle;resizable=0;points=[];" parent="IDjnJ62qDtEvt0z7PZGD-16" vertex="1" connectable="0">
          <mxGeometry x="0.2289" y="1" relative="1" as="geometry">
            <mxPoint x="4" y="-19" as="offset" />
          </mxGeometry>
        </mxCell>
        <mxCell id="IDjnJ62qDtEvt0z7PZGD-18" value="V2TXLivePusherJni" style="swimlane;fontStyle=1;align=center;verticalAlign=top;childLayout=stackLayout;horizontal=1;startSize=26;horizontalStack=0;resizeParent=1;resizeParentMax=0;resizeLast=0;collapsible=1;marginBottom=0;" parent="WIyWlLk6GJQsqaUBKTNV-1" vertex="1">
          <mxGeometry x="160" y="510" width="480" height="56" as="geometry" />
        </mxCell>
        <mxCell id="IDjnJ62qDtEvt0z7PZGD-20" value="" style="line;strokeWidth=1;fillColor=none;align=left;verticalAlign=middle;spacingTop=-1;spacingLeft=3;spacingRight=3;rotatable=0;labelPosition=right;points=[];portConstraint=eastwest;" parent="IDjnJ62qDtEvt0z7PZGD-18" vertex="1">
          <mxGeometry y="26" width="480" height="8" as="geometry" />
        </mxCell>
        <mxCell id="IDjnJ62qDtEvt0z7PZGD-21" value="nativeCreate(..., int mode)" style="text;strokeColor=none;fillColor=none;align=left;verticalAlign=top;spacingLeft=4;spacingRight=4;overflow=hidden;rotatable=0;points=[[0,0.5],[1,0.5]];portConstraint=eastwest;" parent="IDjnJ62qDtEvt0z7PZGD-18" vertex="1">
          <mxGeometry y="34" width="480" height="22" as="geometry" />
        </mxCell>
        <mxCell id="IDjnJ62qDtEvt0z7PZGD-24" value="JAVA" style="swimlane;horizontal=0;fillColor=#dae8fc;strokeColor=#6c8ebf;" parent="WIyWlLk6GJQsqaUBKTNV-1" vertex="1">
          <mxGeometry x="70" y="130" width="660" height="470" as="geometry" />
        </mxCell>
        <mxCell id="IDjnJ62qDtEvt0z7PZGD-25" value="V2TXLivePusherJni" style="swimlane;fontStyle=1;align=center;verticalAlign=top;childLayout=stackLayout;horizontal=1;startSize=26;horizontalStack=0;resizeParent=1;resizeParentMax=0;resizeLast=0;collapsible=1;marginBottom=0;" parent="WIyWlLk6GJQsqaUBKTNV-1" vertex="1">
          <mxGeometry x="155" y="680" width="490" height="60" as="geometry" />
        </mxCell>
        <mxCell id="IDjnJ62qDtEvt0z7PZGD-27" value="" style="line;strokeWidth=1;fillColor=none;align=left;verticalAlign=middle;spacingTop=-1;spacingLeft=3;spacingRight=3;rotatable=0;labelPosition=right;points=[];portConstraint=eastwest;" parent="IDjnJ62qDtEvt0z7PZGD-25" vertex="1">
          <mxGeometry y="26" width="490" height="8" as="geometry" />
        </mxCell>
        <mxCell id="IDjnJ62qDtEvt0z7PZGD-28" value="+ V2TXLivePusherJni(env, j_pusher, mode)" style="text;strokeColor=none;fillColor=none;align=left;verticalAlign=top;spacingLeft=4;spacingRight=4;overflow=hidden;rotatable=0;points=[[0,0.5],[1,0.5]];portConstraint=eastwest;" parent="IDjnJ62qDtEvt0z7PZGD-25" vertex="1">
          <mxGeometry y="34" width="490" height="26" as="geometry" />
        </mxCell>
        <mxCell id="IDjnJ62qDtEvt0z7PZGD-29" value="" style="endArrow=block;startArrow=block;endFill=1;startFill=1;html=1;rounded=0;exitX=0.5;exitY=0;exitDx=0;exitDy=0;" parent="WIyWlLk6GJQsqaUBKTNV-1" source="IDjnJ62qDtEvt0z7PZGD-25" edge="1">
          <mxGeometry width="160" relative="1" as="geometry">
            <mxPoint x="370" y="640" as="sourcePoint" />
            <mxPoint x="400" y="570" as="targetPoint" />
          </mxGeometry>
        </mxCell>
        <mxCell id="IDjnJ62qDtEvt0z7PZGD-30" value="JNI&lt;br&gt;&lt;span style=&quot;font-size: 12px ; text-align: left ; background-color: rgb(248 , 249 , 250)&quot;&gt;文件live_pusher2_jni.cc&lt;br&gt;JNI_V2TXLivePusherJni_Create（）&lt;/span&gt;" style="edgeLabel;html=1;align=center;verticalAlign=middle;resizable=0;points=[];" parent="IDjnJ62qDtEvt0z7PZGD-29" vertex="1" connectable="0">
          <mxGeometry x="0.0572" y="2" relative="1" as="geometry">
            <mxPoint x="2" y="8" as="offset" />
          </mxGeometry>
        </mxCell>
        <mxCell id="IDjnJ62qDtEvt0z7PZGD-32" value="Pusher" style="swimlane;fontStyle=1;align=center;verticalAlign=top;childLayout=stackLayout;horizontal=1;startSize=26;horizontalStack=0;resizeParent=1;resizeParentMax=0;resizeLast=0;collapsible=1;marginBottom=0;" parent="WIyWlLk6GJQsqaUBKTNV-1" vertex="1">
          <mxGeometry x="315" y="830" width="170" height="114" as="geometry" />
        </mxCell>
        <mxCell id="IDjnJ62qDtEvt0z7PZGD-34" value="" style="line;strokeWidth=1;fillColor=none;align=left;verticalAlign=middle;spacingTop=-1;spacingLeft=3;spacingRight=3;rotatable=0;labelPosition=right;points=[];portConstraint=eastwest;" parent="IDjnJ62qDtEvt0z7PZGD-32" vertex="1">
          <mxGeometry y="26" width="170" height="8" as="geometry" />
        </mxCell>
        <mxCell id="IDjnJ62qDtEvt0z7PZGD-35" value="Create(Pusher** pusher,&#xa;                    PusherType type,&#xa;                    std::weak_ptr&lt;Client&gt; client,&#xa;                    base::Thread* thread)" style="text;strokeColor=none;fillColor=none;align=left;verticalAlign=top;spacingLeft=4;spacingRight=4;overflow=hidden;rotatable=0;points=[[0,0.5],[1,0.5]];portConstraint=eastwest;" parent="IDjnJ62qDtEvt0z7PZGD-32" vertex="1">
          <mxGeometry y="34" width="170" height="80" as="geometry" />
        </mxCell>
        <mxCell id="IDjnJ62qDtEvt0z7PZGD-36" value="" style="endArrow=open;endFill=1;endSize=12;html=1;rounded=0;exitX=0.5;exitY=1.031;exitDx=0;exitDy=0;exitPerimeter=0;" parent="WIyWlLk6GJQsqaUBKTNV-1" source="IDjnJ62qDtEvt0z7PZGD-28" target="IDjnJ62qDtEvt0z7PZGD-32" edge="1">
          <mxGeometry width="160" relative="1" as="geometry">
            <mxPoint x="310" y="820" as="sourcePoint" />
            <mxPoint x="470" y="820" as="targetPoint" />
          </mxGeometry>
        </mxCell>
        <mxCell id="IDjnJ62qDtEvt0z7PZGD-38" value="&lt;span style=&quot;text-align: left&quot;&gt;mode: 0 = kRTMP&lt;/span&gt;&lt;br style=&quot;text-align: left&quot;&gt;&lt;span style=&quot;text-align: left&quot;&gt;mode:1=KTRTC&lt;/span&gt;&lt;br style=&quot;text-align: left&quot;&gt;&lt;div style=&quot;text-align: left&quot;&gt;mode:102=kROOM&lt;/div&gt;" style="edgeLabel;html=1;align=center;verticalAlign=middle;resizable=0;points=[];" parent="IDjnJ62qDtEvt0z7PZGD-36" vertex="1" connectable="0">
          <mxGeometry x="-0.0135" y="1" relative="1" as="geometry">
            <mxPoint as="offset" />
          </mxGeometry>
        </mxCell>
        <mxCell id="IDjnJ62qDtEvt0z7PZGD-47" value="" style="endArrow=open;endFill=1;endSize=12;html=1;rounded=0;exitX=0.482;exitY=0.99;exitDx=0;exitDy=0;exitPerimeter=0;entryX=0.5;entryY=0;entryDx=0;entryDy=0;" parent="WIyWlLk6GJQsqaUBKTNV-1" source="IDjnJ62qDtEvt0z7PZGD-35" target="IDjnJ62qDtEvt0z7PZGD-43" edge="1">
          <mxGeometry width="160" relative="1" as="geometry">
            <mxPoint x="310" y="1080" as="sourcePoint" />
            <mxPoint x="470" y="1080" as="targetPoint" />
          </mxGeometry>
        </mxCell>
        <mxCell id="IDjnJ62qDtEvt0z7PZGD-51" value="type" style="rhombus;whiteSpace=wrap;html=1;fillColor=#ffffc0;strokeColor=#ff0000;" parent="WIyWlLk6GJQsqaUBKTNV-1" vertex="1">
          <mxGeometry x="355" y="1170" width="80" height="40" as="geometry" />
        </mxCell>
        <mxCell id="IDjnJ62qDtEvt0z7PZGD-52" value="" style="edgeStyle=orthogonalEdgeStyle;html=1;align=left;verticalAlign=bottom;endArrow=open;endSize=8;strokeColor=#ff0000;rounded=0;entryX=0.5;entryY=0;entryDx=0;entryDy=0;" parent="WIyWlLk6GJQsqaUBKTNV-1" source="IDjnJ62qDtEvt0z7PZGD-51" target="IDjnJ62qDtEvt0z7PZGD-65" edge="1">
          <mxGeometry x="-1" relative="1" as="geometry">
            <mxPoint x="570" y="1290" as="targetPoint" />
            <Array as="points">
              <mxPoint x="585" y="1190" />
            </Array>
          </mxGeometry>
        </mxCell>
        <mxCell id="IDjnJ62qDtEvt0z7PZGD-58" value="kRTMP" style="edgeLabel;html=1;align=center;verticalAlign=middle;resizable=0;points=[];" parent="IDjnJ62qDtEvt0z7PZGD-52" vertex="1" connectable="0">
          <mxGeometry x="0.4723" y="1" relative="1" as="geometry">
            <mxPoint as="offset" />
          </mxGeometry>
        </mxCell>
        <mxCell id="IDjnJ62qDtEvt0z7PZGD-53" value="" style="edgeStyle=orthogonalEdgeStyle;html=1;align=left;verticalAlign=top;endArrow=open;endSize=8;strokeColor=#ff0000;rounded=0;" parent="WIyWlLk6GJQsqaUBKTNV-1" source="IDjnJ62qDtEvt0z7PZGD-51" edge="1">
          <mxGeometry x="-1" y="-22" relative="1" as="geometry">
            <mxPoint x="230" y="1290" as="targetPoint" />
            <Array as="points">
              <mxPoint x="230" y="1190" />
              <mxPoint x="230" y="1280" />
            </Array>
            <mxPoint x="12" y="-20" as="offset" />
          </mxGeometry>
        </mxCell>
        <mxCell id="IDjnJ62qDtEvt0z7PZGD-56" value="kTRTC" style="edgeLabel;html=1;align=center;verticalAlign=middle;resizable=0;points=[];" parent="IDjnJ62qDtEvt0z7PZGD-53" vertex="1" connectable="0">
          <mxGeometry x="0.4667" relative="1" as="geometry">
            <mxPoint as="offset" />
          </mxGeometry>
        </mxCell>
        <mxCell id="IDjnJ62qDtEvt0z7PZGD-54" value="" style="edgeStyle=orthogonalEdgeStyle;html=1;align=left;verticalAlign=bottom;endArrow=open;endSize=8;strokeColor=#ff0000;rounded=0;exitX=0.5;exitY=1;exitDx=0;exitDy=0;" parent="WIyWlLk6GJQsqaUBKTNV-1" source="IDjnJ62qDtEvt0z7PZGD-51" edge="1">
          <mxGeometry x="-1" relative="1" as="geometry">
            <mxPoint x="395" y="1290" as="targetPoint" />
            <mxPoint x="445" y="1200" as="sourcePoint" />
          </mxGeometry>
        </mxCell>
        <mxCell id="IDjnJ62qDtEvt0z7PZGD-57" value="kROOM" style="edgeLabel;html=1;align=center;verticalAlign=middle;resizable=0;points=[];" parent="IDjnJ62qDtEvt0z7PZGD-54" vertex="1" connectable="0">
          <mxGeometry x="-0.175" relative="1" as="geometry">
            <mxPoint as="offset" />
          </mxGeometry>
        </mxCell>
        <mxCell id="IDjnJ62qDtEvt0z7PZGD-55" value="" style="endArrow=open;endFill=1;endSize=12;html=1;rounded=0;exitX=0.5;exitY=1;exitDx=0;exitDy=0;exitPerimeter=0;" parent="WIyWlLk6GJQsqaUBKTNV-1" source="IDjnJ62qDtEvt0z7PZGD-46" target="IDjnJ62qDtEvt0z7PZGD-51" edge="1">
          <mxGeometry width="160" relative="1" as="geometry">
            <mxPoint x="310" y="1230" as="sourcePoint" />
            <mxPoint x="470" y="1230" as="targetPoint" />
          </mxGeometry>
        </mxCell>
        <mxCell id="IDjnJ62qDtEvt0z7PZGD-59" value="TRTCPusher" style="swimlane;fontStyle=1;align=center;verticalAlign=top;childLayout=stackLayout;horizontal=1;startSize=26;horizontalStack=0;resizeParent=1;resizeParentMax=0;resizeLast=0;collapsible=1;marginBottom=0;" parent="WIyWlLk6GJQsqaUBKTNV-1" vertex="1">
          <mxGeometry x="140" y="1290" width="170" height="114" as="geometry" />
        </mxCell>
        <mxCell id="IDjnJ62qDtEvt0z7PZGD-60" value="" style="line;strokeWidth=1;fillColor=none;align=left;verticalAlign=middle;spacingTop=-1;spacingLeft=3;spacingRight=3;rotatable=0;labelPosition=right;points=[];portConstraint=eastwest;" parent="IDjnJ62qDtEvt0z7PZGD-59" vertex="1">
          <mxGeometry y="26" width="170" height="8" as="geometry" />
        </mxCell>
        <mxCell id="IDjnJ62qDtEvt0z7PZGD-61" value="TRTCPusher(client,&#xa; task_runner)" style="text;strokeColor=none;fillColor=none;align=left;verticalAlign=top;spacingLeft=4;spacingRight=4;overflow=hidden;rotatable=0;points=[[0,0.5],[1,0.5]];portConstraint=eastwest;" parent="IDjnJ62qDtEvt0z7PZGD-59" vertex="1">
          <mxGeometry y="34" width="170" height="80" as="geometry" />
        </mxCell>
        <mxCell id="IDjnJ62qDtEvt0z7PZGD-62" value="RoomPusher" style="swimlane;fontStyle=1;align=center;verticalAlign=top;childLayout=stackLayout;horizontal=1;startSize=26;horizontalStack=0;resizeParent=1;resizeParentMax=0;resizeLast=0;collapsible=1;marginBottom=0;" parent="WIyWlLk6GJQsqaUBKTNV-1" vertex="1">
          <mxGeometry x="320" y="1290" width="170" height="114" as="geometry" />
        </mxCell>
        <mxCell id="IDjnJ62qDtEvt0z7PZGD-63" value="" style="line;strokeWidth=1;fillColor=none;align=left;verticalAlign=middle;spacingTop=-1;spacingLeft=3;spacingRight=3;rotatable=0;labelPosition=right;points=[];portConstraint=eastwest;" parent="IDjnJ62qDtEvt0z7PZGD-62" vertex="1">
          <mxGeometry y="26" width="170" height="8" as="geometry" />
        </mxCell>
        <mxCell id="IDjnJ62qDtEvt0z7PZGD-64" value="RoomPusher(client,&#xa; task_runner)" style="text;strokeColor=none;fillColor=none;align=left;verticalAlign=top;spacingLeft=4;spacingRight=4;overflow=hidden;rotatable=0;points=[[0,0.5],[1,0.5]];portConstraint=eastwest;" parent="IDjnJ62qDtEvt0z7PZGD-62" vertex="1">
          <mxGeometry y="34" width="170" height="80" as="geometry" />
        </mxCell>
        <mxCell id="IDjnJ62qDtEvt0z7PZGD-65" value="LivePusher" style="swimlane;fontStyle=1;align=center;verticalAlign=top;childLayout=stackLayout;horizontal=1;startSize=26;horizontalStack=0;resizeParent=1;resizeParentMax=0;resizeLast=0;collapsible=1;marginBottom=0;" parent="WIyWlLk6GJQsqaUBKTNV-1" vertex="1">
          <mxGeometry x="500" y="1290" width="170" height="114" as="geometry" />
        </mxCell>
        <mxCell id="IDjnJ62qDtEvt0z7PZGD-66" value="" style="line;strokeWidth=1;fillColor=none;align=left;verticalAlign=middle;spacingTop=-1;spacingLeft=3;spacingRight=3;rotatable=0;labelPosition=right;points=[];portConstraint=eastwest;" parent="IDjnJ62qDtEvt0z7PZGD-65" vertex="1">
          <mxGeometry y="26" width="170" height="8" as="geometry" />
        </mxCell>
        <mxCell id="IDjnJ62qDtEvt0z7PZGD-67" value="LivePusher(client,&#xa; task_runner)" style="text;strokeColor=none;fillColor=none;align=left;verticalAlign=top;spacingLeft=4;spacingRight=4;overflow=hidden;rotatable=0;points=[[0,0.5],[1,0.5]];portConstraint=eastwest;" parent="IDjnJ62qDtEvt0z7PZGD-65" vertex="1">
          <mxGeometry y="34" width="170" height="80" as="geometry" />
        </mxCell>
        <mxCell id="IDjnJ62qDtEvt0z7PZGD-68" value="C++" style="swimlane;horizontal=0;fillColor=#ffe6cc;strokeColor=#d79b00;" parent="WIyWlLk6GJQsqaUBKTNV-1" vertex="1">
          <mxGeometry x="70" y="660" width="660" height="750" as="geometry" />
        </mxCell>
        <mxCell id="IDjnJ62qDtEvt0z7PZGD-43" value="PusherProxy" style="swimlane;fontStyle=1;align=center;verticalAlign=top;childLayout=stackLayout;horizontal=1;startSize=26;horizontalStack=0;resizeParent=1;resizeParentMax=0;resizeLast=0;collapsible=1;marginBottom=0;" parent="IDjnJ62qDtEvt0z7PZGD-68" vertex="1">
          <mxGeometry x="146" y="330" width="360" height="130" as="geometry" />
        </mxCell>
        <mxCell id="IDjnJ62qDtEvt0z7PZGD-44" value="+std::unique_ptr&lt;Pusher&gt; pusher_" style="text;strokeColor=none;fillColor=none;align=left;verticalAlign=top;spacingLeft=4;spacingRight=4;overflow=hidden;rotatable=0;points=[[0,0.5],[1,0.5]];portConstraint=eastwest;" parent="IDjnJ62qDtEvt0z7PZGD-43" vertex="1">
          <mxGeometry y="26" width="360" height="26" as="geometry" />
        </mxCell>
        <mxCell id="IDjnJ62qDtEvt0z7PZGD-45" value="" style="line;strokeWidth=1;fillColor=none;align=left;verticalAlign=middle;spacingTop=-1;spacingLeft=3;spacingRight=3;rotatable=0;labelPosition=right;points=[];portConstraint=eastwest;" parent="IDjnJ62qDtEvt0z7PZGD-43" vertex="1">
          <mxGeometry y="52" width="360" height="8" as="geometry" />
        </mxCell>
        <mxCell id="IDjnJ62qDtEvt0z7PZGD-46" value="PusherProxy(PusherType type,&#xa;                         std::weak_ptr&lt;Client&gt; client,&#xa;                         scoped_refptr&lt;base::SequencedTaskRunner&gt; task_runner)&#xa;    : client_(client), task_runner_(task_runner)" style="text;strokeColor=none;fillColor=none;align=left;verticalAlign=top;spacingLeft=4;spacingRight=4;overflow=hidden;rotatable=0;points=[[0,0.5],[1,0.5]];portConstraint=eastwest;" parent="IDjnJ62qDtEvt0z7PZGD-43" vertex="1">
          <mxGeometry y="60" width="360" height="70" as="geometry" />
        </mxCell>
      </root>
    </mxGraphModel>
  </diagram>
</mxfile>
